<?xml version="1.0" encoding="UTF-8"?>
<!DOCTYPE svg PUBLIC "-//W3C//DTD SVG 1.1//EN" "http://www.w3.org/Graphics/SVG/1.1/DTD/svg11.dtd">
<!-- Creator: CorelDRAW X7 -->
<svg xmlns="http://www.w3.org/2000/svg" xml:space="preserve" width="600px" height="600px" version="1.1" style="shape-rendering:geometricPrecision; text-rendering:geometricPrecision; image-rendering:optimizeQuality; fill-rule:evenodd; clip-rule:evenodd"
viewBox="0 0 600 600"
 xmlns:xlink="http://www.w3.org/1999/xlink">
 <defs>
  <style type="text/css">
   <![CDATA[
    .fil0 {fill:white}
    .fil1 {fill:#4A4A4A}
   ]]>
  </style>
 </defs>
 <g id="Layer_x0020_1">
  <metadata id="CorelCorpID_0Corel-Layer"/>
  <g id="_283849816">
   <g>
    <path class="fil0" d="M85 0l430 0c47,0 85,38 85,85l0 430c0,47 -38,85 -85,85l-430 0c-47,0 -85,-38 -85,-85l0 -430c0,-47 38,-85 85,-85z"/>
    <path id="1" class="fil1" d="M85 0l430 0c47,0 85,38 85,85l0 430c0,47 -38,85 -85,85l-430 0c-47,0 -85,-38 -85,-85l0 -430c0,-47 38,-85 85,-85zm430 25l-430 0c-16,0 -31,7 -42,18 -11,11 -18,26 -18,42l0 430c0,16 7,31 18,42 11,11 26,18 42,18l430 0c16,0 31,-7 42,-18 11,-11 18,-26 18,-42l0 -430c0,-16 -7,-31 -18,-42 -11,-11 -26,-18 -42,-18z"/>
   </g>
   <g>
    <path class="fil0" d="M300 105c-111,0 -202,90 -202,201 0,83 52,159 130,189 3,1 6,1 10,-1 3,-1 5,-4 6,-7l38 -121c2,-6 -1,-12 -6,-15 -16,-9 -26,-26 -26,-45 0,-27 22,-50 50,-50 28,0 50,23 50,50 0,19 -10,36 -26,45 -5,3 -8,9 -6,15l38 121c1,3 3,6 6,7 2,1 4,1 6,1 1,0 3,0 4,0 78,-30 130,-106 130,-189 0,-111 -91,-201 -202,-201z"/>
    <path id="1" class="fil1" d="M300 128c-49,0 -94,20 -126,52 -32,33 -52,77 -52,126 0,37 11,72 31,101 18,26 43,48 72,61l32 -101c-8,-6 -15,-14 -20,-23 -7,-11 -11,-24 -11,-38 0,-20 8,-38 22,-52 13,-13 32,-22 52,-22 20,0 39,9 52,22 14,14 22,32 22,52 0,14 -4,27 -11,38 -5,9 -12,17 -20,23l32 101c29,-13 54,-35 72,-61 20,-29 31,-64 31,-101 0,-49 -20,-93 -52,-126 -32,-32 -77,-52 -126,-52zm0 -23c-111,0 -202,90 -202,201 0,83 52,159 130,189 3,1 6,1 10,-1 3,-1 5,-4 6,-7l38 -121c2,-6 -1,-12 -6,-15 -16,-9 -26,-26 -26,-45 0,-27 22,-50 50,-50 28,0 50,23 50,50 0,19 -10,36 -26,45 -5,3 -8,9 -6,15l38 121c1,3 3,6 6,7 2,1 4,1 6,1 1,0 3,0 4,0 78,-30 130,-106 130,-189 0,-111 -91,-201 -202,-201z"/>
   </g>
  </g>
 </g>
</svg>
