<?xml version="1.0" encoding="UTF-8"?>
<!DOCTYPE svg PUBLIC "-//W3C//DTD SVG 1.1//EN" "http://www.w3.org/Graphics/SVG/1.1/DTD/svg11.dtd">
<!-- Creator: CorelDRAW X7 -->
<svg xmlns="http://www.w3.org/2000/svg" xml:space="preserve" width="600px" height="600px" version="1.1" style="shape-rendering:geometricPrecision; text-rendering:geometricPrecision; image-rendering:optimizeQuality; fill-rule:evenodd; clip-rule:evenodd"
viewBox="0 0 600 600"
 xmlns:xlink="http://www.w3.org/1999/xlink">
 <defs>
  <style type="text/css">
   <![CDATA[
    .str0 {stroke:white;stroke-width:9.36854}
    .fil1 {fill:#4A4A4A}
    .fil0 {fill:white}
    .fil2 {fill:#4A4A4A;fill-rule:nonzero}
    .fil3 {fill:white;fill-rule:nonzero}
   ]]>
  </style>
 </defs>
 <g id="Layer_x0020_1">
  <metadata id="CorelCorpID_0Corel-Layer"/>
  <g>
   <path class="fil0" d="M85 0l430 0c47,0 85,38 85,85l0 430c0,47 -38,85 -85,85l-430 0c-47,0 -85,-38 -85,-85l0 -430c0,-47 38,-85 85,-85z"/>
   <path id="1" class="fil1" d="M85 0l430 0c47,0 85,38 85,85l0 430c0,47 -38,85 -85,85l-430 0c-47,0 -85,-38 -85,-85l0 -430c0,-47 38,-85 85,-85zm430 25l-430 0c-16,0 -31,7 -42,18 -11,11 -18,26 -18,42l0 430c0,16 7,31 18,42 11,11 26,18 42,18l430 0c16,0 31,-7 42,-18 11,-11 18,-26 18,-42l0 -430c0,-16 -7,-31 -18,-42 -11,-11 -26,-18 -42,-18z"/>
  </g>
  <g>
   <path class="fil2" d="M124 215c3,-11 17,-16 26,-8l60 61c24,23 81,-34 58,-58l-60 -60c-8,-7 -6,-22 6,-25 28,-9 58,-8 86,1 60,21 98,82 90,146l73 74c24,23 25,61 1,85l-32 33c-24,24 -62,23 -86,0l-74 -74c-19,2 -38,1 -56,-5 -58,-17 -98,-70 -98,-131 1,-13 3,-26 6,-39z"/>
   <path class="fil3 str0" d="M149 250c0,1 0,3 0,4 0,47 31,89 75,102 17,5 34,6 51,2 5,-1 10,1 14,5l78 79c12,12 31,13 43,0l32 -32c12,-12 12,-30 0,-42l-79 -80c-5,-4 -5,-10 -4,-15 9,-51 -21,-101 -69,-118 -13,-5 -27,-7 -41,-6l40 40c52,52 -48,152 -100,100l-40 -39z"/>
   <rect class="fil1" transform="matrix(0.699114 0.705626 -0.705626 0.699114 342.067 319.107)" width="102" height="33.0001" rx="17" ry="17"/>
  </g>
 </g>
</svg>
