<?xml version="1.0" encoding="UTF-8" standalone="no"?>
<!-- Creator: CorelDRAW X7 -->

<svg
   xmlns:dc="http://purl.org/dc/elements/1.1/"
   xmlns:cc="http://creativecommons.org/ns#"
   xmlns:rdf="http://www.w3.org/1999/02/22-rdf-syntax-ns#"
   xmlns:svg="http://www.w3.org/2000/svg"
   xmlns="http://www.w3.org/2000/svg"
   xmlns:sodipodi="http://sodipodi.sourceforge.net/DTD/sodipodi-0.dtd"
   xmlns:inkscape="http://www.inkscape.org/namespaces/inkscape"
   xml:space="preserve"
   width="600px"
   height="600px"
   version="1.1"
   style="shape-rendering:geometricPrecision; text-rendering:geometricPrecision; image-rendering:optimizeQuality; fill-rule:evenodd; clip-rule:evenodd"
   viewBox="0 0 600 600"
   id="svg915"
   sodipodi:docname="flexdeploy2.svg"
   inkscape:version="0.92.4 (5da689c313, 2019-01-14)"><metadata
   id="metadata919"><rdf:RDF><cc:Work
       rdf:about=""><dc:format>image/svg+xml</dc:format><dc:type
         rdf:resource="http://purl.org/dc/dcmitype/StillImage" /></cc:Work></rdf:RDF></metadata><sodipodi:namedview
   pagecolor="#ffffff"
   bordercolor="#666666"
   borderopacity="1"
   objecttolerance="10"
   gridtolerance="10"
   guidetolerance="10"
   inkscape:pageopacity="0"
   inkscape:pageshadow="2"
   inkscape:window-width="1680"
   inkscape:window-height="988"
   id="namedview917"
   showgrid="false"
   inkscape:zoom="0.92984542"
   inkscape:cx="409.54579"
   inkscape:cy="275.38727"
   inkscape:window-x="-8"
   inkscape:window-y="-8"
   inkscape:window-maximized="1"
   inkscape:current-layer="svg915" />
 <defs
   id="defs870">
  <style
   type="text/css"
   id="style868">
   <![CDATA[
    .str1 {stroke:#4A4A4A;stroke-width:24.9993}
    .str0 {stroke:#4A4A4A;stroke-width:24.9993}
    .str2 {stroke:#4A4A4A;stroke-width:21.9993;stroke-linecap:round;stroke-linejoin:round}
    .fil6 {fill:none}
    .fil0 {fill:white}
    .fil1 {fill:#4A4A4A}
    .fil4 {fill:#FEFEFE;fill-rule:nonzero}
    .fil3 {fill:#4A4A4A;fill-rule:nonzero}
    .fil5 {fill:white;fill-rule:nonzero}
    .fil2 {fill:white;fill-rule:nonzero}
   ]]>
  </style>
 </defs>
 <g
   id="Layer_x0020_1">
  <metadata
   id="CorelCorpID_0Corel-Layer" />
  <g
   id="g876">
   <path
   class="fil0"
   d="M85 0l430 0c47,0 85,38 85,85l0 430c0,47 -38,85 -85,85l-430 0c-47,0 -85,-38 -85,-85l0 -430c0,-47 38,-85 85,-85z"
   id="path873" />
   <path
   id="1"
   class="fil1"
   d="M85 0l430 0c47,0 85,38 85,85l0 430c0,47 -38,85 -85,85l-430 0c-47,0 -85,-38 -85,-85l0 -430c0,-47 38,-85 85,-85zm430 25l-430 0c-16,0 -31,7 -42,18 -11,11 -18,26 -18,42l0 430c0,16 7,31 18,42 11,11 26,18 42,18l430 0c16,0 31,-7 42,-18 11,-11 18,-26 18,-42l0 -430c0,-16 -7,-31 -18,-42 -11,-11 -26,-18 -42,-18z" />
  </g>
  <g
   id="g894">
   <g
   id="_235726848">
    <path
   class="fil2 str0"
   d="M352 360c35,-16 54,-33 73,-75 25,-62 1,-135 -58,-169 -65,-37 -149,-15 -186,50 -38,65 -16,149 50,186 37,22 82,24 121,8z"
   id="path878" />
    <g
   id="g886">
     <path
   class="fil3"
   d="M487 212c0,6 0,12 0,19 0,38 -8,79 -80,79 -34,0 -61,-17 -79,-46 -14,-23 -20,-48 -22,-58 0,-1 0,-2 -1,-3 -4,-2 -9,-1 -13,0 0,1 0,2 -1,3 -2,10 -7,35 -22,58 -15,24 -40,46 -78,46 -71,0 -82,-41 -81,-98 0,-14 5,-26 14,-37 8,-8 15,-14 46,-16l79 -1c13,0 27,5 36,17 9,-3 19,-3 28,0 8,-12 22,-17 36,-17l79 1c12,0 31,3 43,13 12,13 16,23 16,40z"
   id="path880" />
     <path
   class="fil4"
   d="M435 188l-82 -1c-14,0 -21,5 -17,20 2,10 7,27 17,42 12,20 31,33 55,32 45,0 50,-27 51,-51 0,-6 -1,-12 -1,-17 0,-16 -9,-25 -23,-25z"
   id="path882" />
     <path
   class="fil4"
   d="M249 187l-85 1c-14,0 -25,8 -25,24 0,5 0,11 0,16 0,26 4,53 52,53 26,0 43,-15 54,-32 10,-16 15,-34 17,-44 3,-11 -1,-18 -13,-18z"
   id="path884" />
    </g>
   </g>
   <g
   id="_235726272">
    <path
   class="fil5 str0"
   d="M521 347c8,-2 13,-4 17,-11 6,-9 0,-20 -14,-25 -16,-6 -36,-2 -45,7 -9,10 -3,23 12,28 9,4 20,4 30,1z"
   id="path889" />
    <path
   class="fil5 str0"
   d="M105 347c8,-2 13,-5 18,-11 6,-9 0,-20 -14,-25 -16,-6 -36,-3 -45,7 -9,10 -4,22 12,28 9,3 20,4 29,1z"
   id="path891" />
   </g>
  </g>
  <g
   id="g900">
   <line
   class="fil6 str1"
   x1="0"
   y1="342"
   x2="600"
   y2="342"
   id="line896" />
   <rect
   class="fil0"
   x="25"
   y="354.3443"
   width="544.12201"
   height="45.832901"
   id="rect898"
   style="fill:#ffffff" />
  </g>
  <g
   id="g906">
   <line
   class="fil6 str2"
   x1="86"
   y1="429"
   x2="241"
   y2="429"
   id="line902" />
   <line
   class="fil6 str2"
   x1="86"
   y1="502"
   x2="241"
   y2="502"
   id="line904" />
  </g>
  <g
   id="g912">
   <line
   class="fil6 str2"
   x1="360"
   y1="429"
   x2="515"
   y2="429"
   id="line908" />
   <line
   class="fil6 str2"
   x1="360"
   y1="502"
   x2="515"
   y2="502"
   id="line910" />
  </g>
 </g>
</svg>